<svg id="Component_145_1" data-name="Component 145 – 1" xmlns="http://www.w3.org/2000/svg" width="41.322" height="41.322" viewBox="0 0 41.322 41.322">
  <path id="Path_392" data-name="Path 392" d="M163.046,355.184a20.657,20.657,0,1,1-15.633,24.677,20.657,20.657,0,0,1,15.633-24.677m-1.272.951a18.348,18.348,0,1,0,12.835,34,15.614,15.614,0,0,0,5.011-4.038,18.347,18.347,0,0,0-17.846-29.96" transform="translate(-146.908 -354.679)" fill="#fff"/>
  <path id="Path_393" data-name="Path 393" d="M174.761,363.775c-.358-.178-.726-.34-1.1-.487a13.142,13.142,0,0,0-17.38,15.883c.057.2.12.4.187.6a13.155,13.155,0,0,0,23.422,3.029,13.157,13.157,0,0,1-1.151,1.839,16.425,16.425,0,0,1-3.962,3.708,13.819,13.819,0,0,1-4.989,2.015,14.565,14.565,0,0,1-9.607-27.175,14.736,14.736,0,0,1,8.3-1.6,14.531,14.531,0,0,1,6.286,2.187" transform="translate(-146.908 -354.679)" fill="#fff"/>
  <path id="Path_394" data-name="Path 394" d="M182.8,376.193q.006-.715-.053-1.434a15.665,15.665,0,0,0-26.061-10.406c-.185.165-.367.338-.543.511a15.55,15.55,0,0,0-4.108,7.07,15.737,15.737,0,0,0,13.09,19.613,15.866,15.866,0,0,1-2.568-.282,19.649,19.649,0,0,1-6.035-2.327,16.566,16.566,0,0,1-4.758-4.306,18.111,18.111,0,0,1-3.467-9.414,17.3,17.3,0,0,1,27.529-15.21,18.319,18.319,0,0,1,6.035,8.311,17.369,17.369,0,0,1,.939,7.874" transform="translate(-146.908 -354.679)" fill="#fff"/>
  <path id="Path_395" data-name="Path 395" d="M172.249,364.669c-.309-.08-.622-.145-.939-.2A10.463,10.463,0,0,0,160.388,379.7c.077.146.16.293.244.436a10.455,10.455,0,0,0,3.928,3.816,8.727,8.727,0,0,0,5.161,1.314,10.495,10.495,0,0,0,9.654-6.628,10.527,10.527,0,0,1-.593,1.622,13.074,13.074,0,0,1-2.477,3.541,11.018,11.018,0,0,1-3.554,2.391,11.6,11.6,0,0,1-11.957-19.585,11.738,11.738,0,0,1,6.2-2.612,11.594,11.594,0,0,1,5.257.669" transform="translate(-146.908 -354.679)" fill="#fff"/>
</svg>
