<svg width="40" height="40" viewBox="0 0 40 40" fill="none" xmlns="http://www.w3.org/2000/svg">
<path d="M24.6211 26.5984L7.60103 33.9008C6.17477 34.5094 4.61539 33.4825 4.61539 31.9421V15.3024C4.61539 14.4466 5.12884 13.686 5.90853 13.3436L22.9286 6.02217C24.3358 5.41363 25.8952 6.45956 25.8952 7.9809V24.6206C25.8952 25.4764 25.4008 26.2561 24.6211 26.5984Z" fill="#0F2C61"/>
<path d="M34.0915 27.8345L22.4151 32.8549C21.0079 33.4635 19.4485 32.4175 19.4485 30.8962V19.5812C19.4485 18.7254 19.962 17.9647 20.7417 17.6224L32.418 12.602C33.8252 11.9935 35.3846 13.0394 35.3846 14.5607V25.8567C35.3846 26.7315 34.8902 27.4922 34.0915 27.8345Z" fill="#256FF2"/>
</svg>
