<svg width="118" height="32" viewBox="0 0 118 32" fill="none" xmlns="http://www.w3.org/2000/svg">
<path d="M33.4443 18.344C33.4443 17.4506 33.5795 16.6269 33.8634 15.8591C34.1338 15.0914 34.5259 14.4352 35.0396 13.8629C35.5533 13.3045 36.1482 12.8578 36.8376 12.5507C37.5271 12.2296 38.2977 12.076 39.1359 12.076C40.0282 12.076 40.7717 12.2296 41.353 12.5507C41.9344 12.8717 42.4075 13.3045 42.7861 13.8769V7.72058H45.6116V24.3886H42.7861V22.8111C42.4075 23.3695 41.9344 23.8023 41.3395 24.1233C40.7447 24.4444 40.0011 24.598 39.1089 24.598C38.2842 24.598 37.5271 24.4444 36.8376 24.1233C36.1482 23.8023 35.5398 23.3695 35.0396 22.8111C34.5259 22.2527 34.1338 21.5827 33.8634 20.8149C33.5795 20.0471 33.4443 19.2235 33.4443 18.344ZM42.4075 17.7298C42.2859 16.8922 41.9344 16.2221 41.353 15.7195C40.7717 15.217 40.0552 14.9518 39.2305 14.9518C38.7438 14.9518 38.2842 15.0495 37.8921 15.2309C37.4866 15.4124 37.1486 15.6637 36.8782 15.9708C36.6078 16.2779 36.3915 16.6409 36.2428 17.0597C36.0941 17.4785 36.013 17.9112 36.013 18.3719C36.013 18.8186 36.0941 19.2374 36.2428 19.6422C36.3915 20.0471 36.6078 20.3961 36.8782 20.7032C37.1486 21.0103 37.5001 21.2616 37.8921 21.4431C38.2977 21.6245 38.7438 21.7223 39.2305 21.7223C39.6631 21.7223 40.0687 21.6525 40.4337 21.5129C40.7988 21.3733 41.1232 21.1778 41.3936 20.9405C42.1642 20.2565 42.5292 19.1816 42.4481 18.1346C42.4346 17.995 42.4211 17.8554 42.4075 17.7298Z" fill="#0D0D0D"/>
<path d="M50.3568 19.1536C50.4785 19.8516 50.8164 20.5496 51.3707 21.108C51.925 21.6664 52.655 21.9456 53.5608 21.9456C54.1421 21.9456 54.6559 21.806 55.1155 21.5407C55.5752 21.2755 55.8996 20.9405 56.1159 20.5356H59.2794C58.955 21.7641 58.279 22.7552 57.2786 23.4951C56.2646 24.235 55.0209 24.6119 53.5473 24.6119C52.6821 24.6119 51.8709 24.4583 51.1274 24.1373C50.3838 23.8162 49.7349 23.3834 49.1806 22.825C48.6263 22.2667 48.1937 21.5966 47.8963 20.8288C47.5854 20.061 47.4366 19.2374 47.4366 18.3579C47.4366 17.4645 47.5854 16.6409 47.8828 15.8731C48.1802 15.1053 48.5993 14.4492 49.1401 13.8768C49.6808 13.3184 50.3162 12.8717 51.0598 12.5646C51.8033 12.2435 52.601 12.09 53.4662 12.09C54.2909 12.09 55.0479 12.2156 55.7644 12.4669C56.4674 12.7182 57.0893 13.0811 57.6301 13.5278C58.1573 13.9885 58.5899 14.5329 58.9144 15.189C59.2389 15.8312 59.4416 16.5571 59.5228 17.3388C59.5498 17.6599 59.5633 17.9531 59.5633 18.2044C59.5633 18.4556 59.5498 18.7348 59.5363 19.1536H50.3568V19.1536ZM56.4539 17.2411C56.3593 16.5013 56.0483 15.901 55.5076 15.4403C54.9668 14.9796 54.2909 14.7423 53.4797 14.7423C52.6686 14.7423 52.0061 14.9796 51.4789 15.4403C50.9516 15.901 50.6001 16.5013 50.4379 17.2411H56.4539Z" fill="#0D0D0D"/>
<path d="M60.6719 18.344C60.6719 17.4506 60.8341 16.6269 61.145 15.8592C61.456 15.0914 61.8886 14.4353 62.4294 13.8629C62.9701 13.3045 63.6191 12.8578 64.3626 12.5507C65.1062 12.2296 65.9173 12.076 66.7825 12.076C67.5396 12.076 68.2561 12.2017 68.9186 12.439C69.581 12.6763 70.1758 13.0114 70.7031 13.4302C71.2303 13.8489 71.6629 14.3655 72.0009 14.9657C72.3389 15.566 72.5687 16.2361 72.6769 16.962H69.6486C69.4593 16.3617 69.1078 15.8731 68.6211 15.4962C68.1344 15.1193 67.5261 14.9238 66.8096 14.9238C66.3364 14.9238 65.8903 15.0216 65.4982 15.203C65.1062 15.3845 64.7682 15.6358 64.4843 15.9569C64.2139 16.2779 63.9976 16.6409 63.8354 17.0457C63.6731 17.4506 63.6055 17.8973 63.6055 18.358C63.6055 18.8047 63.6866 19.2374 63.8354 19.6423C63.9976 20.0471 64.2139 20.41 64.4843 20.7311C64.7547 21.0522 65.0926 21.3035 65.4982 21.485C65.8903 21.6664 66.3364 21.7641 66.8096 21.7641C67.5126 21.7641 68.1074 21.5827 68.6076 21.2058C69.1078 20.8288 69.4593 20.3542 69.6486 19.7679H72.6769C72.5552 20.4798 72.3254 21.136 71.9874 21.7223C71.6494 22.3225 71.2168 22.8251 70.7031 23.2439C70.1894 23.6627 69.5945 23.9977 68.9321 24.235C68.2696 24.4723 67.5531 24.598 66.796 24.598C65.9308 24.598 65.1197 24.4444 64.3761 24.1234C63.6326 23.8023 62.9836 23.3695 62.4429 22.8111C61.9021 22.2527 61.4695 21.5827 61.1586 20.8149C60.8341 20.0471 60.6719 19.2235 60.6719 18.344Z" fill="#0D0D0D"/>
<path d="M85.2362 24.3886H82.4107V22.839C82.4107 22.8949 82.289 23.0205 82.262 23.0624C82.2079 23.1322 82.1539 23.202 82.0863 23.2578C81.6131 23.7604 80.9777 24.1373 80.3423 24.3746C79.8826 24.5421 79.3824 24.598 78.8957 24.6259C78.747 24.6259 78.5983 24.6399 78.4496 24.6399C77.8277 24.6399 77.2599 24.5282 76.7462 24.3048C76.2325 24.0815 75.8134 23.7743 75.4619 23.3835C75.1104 22.9926 74.84 22.518 74.6507 21.9875C74.4615 21.4431 74.3668 20.8567 74.3668 20.2006V12.3134H77.1923V19.2514C77.1923 20.0331 77.4086 20.6474 77.8412 21.0941C78.2739 21.5268 78.8281 21.7502 79.5041 21.7502C79.9232 21.7502 80.3017 21.6525 80.6532 21.457C81.0047 21.2616 81.3021 21.0103 81.559 20.7032C81.8159 20.3961 82.0187 20.0331 82.1674 19.6283C82.3161 19.2235 82.3972 18.8047 82.4107 18.3859V12.3134H85.2362V24.3886V24.3886Z" fill="#0D0D0D"/>
<path d="M99.891 18.344C99.891 19.2235 99.7558 20.0471 99.4719 20.8149C99.2015 21.5827 98.8094 22.2388 98.2957 22.8111C97.782 23.3695 97.1872 23.8162 96.4977 24.1233C95.8082 24.4444 95.0376 24.598 94.1994 24.598C93.3072 24.598 92.5636 24.4444 91.9823 24.1233C91.401 23.8023 90.9278 23.3695 90.5493 22.8111V24.3886H87.7238V7.72058H90.5493V13.8769C90.9278 13.3045 91.401 12.8578 91.9823 12.5507C92.5636 12.2296 93.3072 12.076 94.1994 12.076C95.0376 12.076 95.8082 12.2296 96.4977 12.5507C97.1872 12.8717 97.7955 13.3045 98.2957 13.8629C98.7959 14.4213 99.188 15.0914 99.4719 15.8591C99.7423 16.6269 99.891 17.4506 99.891 18.344ZM91.0495 17.7298V19.0001C91.1035 19.391 91.2252 19.74 91.401 20.075C91.5767 20.41 91.793 20.6892 92.0769 20.9405C92.3473 21.1918 92.6718 21.3733 93.0368 21.5129C93.4018 21.6525 93.8074 21.7223 94.24 21.7223C94.7267 21.7223 95.1728 21.6245 95.5784 21.4431C95.9704 21.2616 96.3084 21.0103 96.5923 20.7032C96.8762 20.3961 97.0925 20.0331 97.2412 19.6422C97.3899 19.2374 97.4711 18.8186 97.4711 18.3719C97.4711 17.9112 97.3899 17.4645 97.2412 17.0597C97.0925 16.6409 96.8762 16.2779 96.6058 15.9708C96.3354 15.6637 95.9839 15.4124 95.5919 15.2309C95.1863 15.0495 94.7402 14.9518 94.2535 14.9518C93.8209 14.9518 93.4153 15.0216 93.0503 15.1751C92.6853 15.3287 92.3608 15.5241 92.0904 15.7614C91.8201 16.0127 91.5902 16.3059 91.4145 16.6409C91.2252 16.9759 91.1035 17.3389 91.0495 17.7298Z" fill="#0D0D0D"/>
<path d="M103.96 19.1536C104.082 19.8516 104.42 20.5496 104.974 21.108C105.528 21.6664 106.258 21.9456 107.164 21.9456C107.746 21.9456 108.259 21.806 108.719 21.5407C109.179 21.2755 109.503 20.9405 109.719 20.5356H112.883C112.558 21.7641 111.882 22.7552 110.882 23.4951C109.868 24.235 108.624 24.6119 107.151 24.6119C106.285 24.6119 105.474 24.4583 104.731 24.1373C103.987 23.8162 103.338 23.3834 102.784 22.825C102.23 22.2667 101.797 21.5966 101.5 20.8288C101.189 20.061 101.04 19.2374 101.04 18.3579C101.04 17.4645 101.189 16.6409 101.486 15.8731C101.784 15.1053 102.203 14.4492 102.743 13.8768C103.284 13.3184 103.92 12.8717 104.663 12.5646C105.407 12.2435 106.204 12.09 107.07 12.09C107.894 12.09 108.651 12.2156 109.368 12.4669C110.071 12.7182 110.693 13.0811 111.233 13.5278C111.761 13.9885 112.193 14.5329 112.518 15.189C112.842 15.8312 113.045 16.5571 113.126 17.3388C113.153 17.6599 113.167 17.9531 113.167 18.2044C113.167 18.4556 113.153 18.7348 113.14 19.1536H103.96V19.1536ZM110.057 17.2411C109.963 16.5013 109.652 15.901 109.111 15.4403C108.57 14.9796 107.894 14.7423 107.083 14.7423C106.272 14.7423 105.61 14.9796 105.082 15.4403C104.555 15.901 104.204 16.5013 104.041 17.2411H110.057Z" fill="#0D0D0D"/>
<path d="M19.2221 21.2337L7.12251 26.5943C6.10857 27.041 5 26.2872 5 25.1564V12.9416C5 12.3134 5.36502 11.755 5.9193 11.5037L18.0189 6.12923C19.0194 5.68251 20.1279 6.4503 20.1279 7.56708V19.7819C20.1279 20.4101 19.7764 20.9824 19.2221 21.2337Z" fill="#0F2C61"/>
<path d="M25.9547 22.1411L17.6539 25.8265C16.6535 26.2732 15.5449 25.5054 15.5449 24.3886V16.0825C15.5449 15.4544 15.9099 14.896 16.4642 14.6447L24.765 10.9593C25.7654 10.5126 26.874 11.2804 26.874 12.3972V20.6893C26.874 21.3314 26.5225 21.8898 25.9547 22.1411Z" fill="#256FF2"/>
</svg>
